<mxfile host="Electron" modified="2024-04-15T14:06:50.640Z" agent="Mozilla/5.0 (Macintosh; Intel Mac OS X 10_15_7) AppleWebKit/537.36 (KHTML, like Gecko) draw.io/24.2.5 Chrome/120.0.6099.109 Electron/28.1.0 Safari/537.36" etag="KN-2e9JDGGukw7ci_ddE" version="24.2.5" type="device">
  <diagram name="Activity 生命周期" id="p3-lZBauEjB5AO7REEpq">
    <mxGraphModel dx="2074" dy="1214" grid="1" gridSize="10" guides="1" tooltips="1" connect="1" arrows="1" fold="1" page="1" pageScale="1" pageWidth="827" pageHeight="1169" math="0" shadow="0">
      <root>
        <mxCell id="0" />
        <mxCell id="1" parent="0" />
        <mxCell id="f_M7K9jcNURET8fD-qvR-11" style="edgeStyle=orthogonalEdgeStyle;rounded=0;orthogonalLoop=1;jettySize=auto;html=1;" edge="1" parent="1" source="f_M7K9jcNURET8fD-qvR-1" target="f_M7K9jcNURET8fD-qvR-4">
          <mxGeometry relative="1" as="geometry" />
        </mxCell>
        <mxCell id="f_M7K9jcNURET8fD-qvR-1" value="活动启动" style="ellipse;whiteSpace=wrap;html=1;fontStyle=1;fontSize=16;" vertex="1" parent="1">
          <mxGeometry x="330" y="160" width="120" height="70" as="geometry" />
        </mxCell>
        <mxCell id="f_M7K9jcNURET8fD-qvR-15" style="edgeStyle=orthogonalEdgeStyle;rounded=0;orthogonalLoop=1;jettySize=auto;html=1;exitX=0.5;exitY=1;exitDx=0;exitDy=0;" edge="1" parent="1" source="f_M7K9jcNURET8fD-qvR-2" target="f_M7K9jcNURET8fD-qvR-7">
          <mxGeometry relative="1" as="geometry" />
        </mxCell>
        <mxCell id="f_M7K9jcNURET8fD-qvR-2" value="活动运行" style="ellipse;whiteSpace=wrap;html=1;fontStyle=1;fontSize=16;" vertex="1" parent="1">
          <mxGeometry x="330" y="540" width="120" height="70" as="geometry" />
        </mxCell>
        <mxCell id="f_M7K9jcNURET8fD-qvR-3" value="活动撤销" style="ellipse;whiteSpace=wrap;html=1;fontStyle=1;fontSize=16;" vertex="1" parent="1">
          <mxGeometry x="330" y="880" width="120" height="70" as="geometry" />
        </mxCell>
        <mxCell id="f_M7K9jcNURET8fD-qvR-12" style="edgeStyle=orthogonalEdgeStyle;rounded=0;orthogonalLoop=1;jettySize=auto;html=1;exitX=0.5;exitY=1;exitDx=0;exitDy=0;entryX=0.5;entryY=0;entryDx=0;entryDy=0;" edge="1" parent="1" source="f_M7K9jcNURET8fD-qvR-4" target="f_M7K9jcNURET8fD-qvR-5">
          <mxGeometry relative="1" as="geometry" />
        </mxCell>
        <mxCell id="f_M7K9jcNURET8fD-qvR-4" value="onCreate()" style="rounded=0;whiteSpace=wrap;html=1;fontSize=19;strokeColor=#82b366;align=center;verticalAlign=middle;fontFamily=Helvetica;fillColor=#d5e8d4;" vertex="1" parent="1">
          <mxGeometry x="330" y="270" width="120" height="40" as="geometry" />
        </mxCell>
        <mxCell id="f_M7K9jcNURET8fD-qvR-13" style="edgeStyle=orthogonalEdgeStyle;rounded=0;orthogonalLoop=1;jettySize=auto;html=1;exitX=0.5;exitY=1;exitDx=0;exitDy=0;entryX=0.5;entryY=0;entryDx=0;entryDy=0;" edge="1" parent="1" source="f_M7K9jcNURET8fD-qvR-5" target="f_M7K9jcNURET8fD-qvR-6">
          <mxGeometry relative="1" as="geometry" />
        </mxCell>
        <mxCell id="f_M7K9jcNURET8fD-qvR-5" value="onStart()" style="rounded=0;whiteSpace=wrap;html=1;fontSize=19;strokeColor=#82b366;align=center;verticalAlign=middle;fontFamily=Helvetica;fillColor=#d5e8d4;" vertex="1" parent="1">
          <mxGeometry x="330" y="360" width="120" height="40" as="geometry" />
        </mxCell>
        <mxCell id="f_M7K9jcNURET8fD-qvR-14" style="edgeStyle=orthogonalEdgeStyle;rounded=0;orthogonalLoop=1;jettySize=auto;html=1;exitX=0.5;exitY=1;exitDx=0;exitDy=0;" edge="1" parent="1" source="f_M7K9jcNURET8fD-qvR-6" target="f_M7K9jcNURET8fD-qvR-2">
          <mxGeometry relative="1" as="geometry" />
        </mxCell>
        <mxCell id="f_M7K9jcNURET8fD-qvR-6" value="onResume()" style="rounded=0;whiteSpace=wrap;html=1;fontSize=19;strokeColor=#82b366;align=center;verticalAlign=middle;fontFamily=Helvetica;fillColor=#d5e8d4;" vertex="1" parent="1">
          <mxGeometry x="330" y="450" width="120" height="40" as="geometry" />
        </mxCell>
        <mxCell id="f_M7K9jcNURET8fD-qvR-16" style="edgeStyle=orthogonalEdgeStyle;rounded=0;orthogonalLoop=1;jettySize=auto;html=1;exitX=0.5;exitY=1;exitDx=0;exitDy=0;" edge="1" parent="1" source="f_M7K9jcNURET8fD-qvR-7" target="f_M7K9jcNURET8fD-qvR-8">
          <mxGeometry relative="1" as="geometry" />
        </mxCell>
        <mxCell id="f_M7K9jcNURET8fD-qvR-37" style="edgeStyle=orthogonalEdgeStyle;rounded=0;orthogonalLoop=1;jettySize=auto;html=1;entryX=1;entryY=0.5;entryDx=0;entryDy=0;" edge="1" parent="1" source="f_M7K9jcNURET8fD-qvR-7" target="f_M7K9jcNURET8fD-qvR-6">
          <mxGeometry relative="1" as="geometry">
            <mxPoint x="490" y="480" as="targetPoint" />
            <Array as="points">
              <mxPoint x="521" y="670" />
              <mxPoint x="521" y="470" />
            </Array>
          </mxGeometry>
        </mxCell>
        <mxCell id="f_M7K9jcNURET8fD-qvR-38" value="再次&lt;b&gt;获得焦点&lt;/b&gt;" style="edgeLabel;html=1;align=center;verticalAlign=middle;resizable=0;points=[];fontSize=16;" vertex="1" connectable="0" parent="f_M7K9jcNURET8fD-qvR-37">
          <mxGeometry x="-0.3041" y="-4" relative="1" as="geometry">
            <mxPoint x="-5" as="offset" />
          </mxGeometry>
        </mxCell>
        <mxCell id="f_M7K9jcNURET8fD-qvR-7" value="onPause()" style="rounded=0;whiteSpace=wrap;html=1;fontSize=19;fillColor=#d5e8d4;strokeColor=#82b366;" vertex="1" parent="1">
          <mxGeometry x="330" y="650" width="120" height="40" as="geometry" />
        </mxCell>
        <mxCell id="f_M7K9jcNURET8fD-qvR-17" style="edgeStyle=orthogonalEdgeStyle;rounded=0;orthogonalLoop=1;jettySize=auto;html=1;" edge="1" parent="1" source="f_M7K9jcNURET8fD-qvR-8" target="f_M7K9jcNURET8fD-qvR-9">
          <mxGeometry relative="1" as="geometry" />
        </mxCell>
        <mxCell id="f_M7K9jcNURET8fD-qvR-19" style="edgeStyle=orthogonalEdgeStyle;rounded=0;orthogonalLoop=1;jettySize=auto;html=1;entryX=0.5;entryY=1;entryDx=0;entryDy=0;" edge="1" parent="1" source="f_M7K9jcNURET8fD-qvR-8" target="f_M7K9jcNURET8fD-qvR-10">
          <mxGeometry relative="1" as="geometry" />
        </mxCell>
        <mxCell id="f_M7K9jcNURET8fD-qvR-28" value="活动再次对用户&lt;b style=&quot;font-size: 16px;&quot;&gt;可见&lt;/b&gt;" style="edgeLabel;html=1;align=center;verticalAlign=middle;resizable=0;points=[];fontSize=16;" vertex="1" connectable="0" parent="f_M7K9jcNURET8fD-qvR-19">
          <mxGeometry x="0.4708" y="-1" relative="1" as="geometry">
            <mxPoint x="-1" y="64" as="offset" />
          </mxGeometry>
        </mxCell>
        <mxCell id="f_M7K9jcNURET8fD-qvR-8" value="onStop()" style="rounded=0;whiteSpace=wrap;html=1;fontSize=19;fillColor=#eeeeee;strokeColor=#36393d;" vertex="1" parent="1">
          <mxGeometry x="330" y="740" width="120" height="40" as="geometry" />
        </mxCell>
        <mxCell id="f_M7K9jcNURET8fD-qvR-18" style="edgeStyle=orthogonalEdgeStyle;rounded=0;orthogonalLoop=1;jettySize=auto;html=1;entryX=0.5;entryY=0;entryDx=0;entryDy=0;" edge="1" parent="1" source="f_M7K9jcNURET8fD-qvR-9" target="f_M7K9jcNURET8fD-qvR-3">
          <mxGeometry relative="1" as="geometry" />
        </mxCell>
        <mxCell id="f_M7K9jcNURET8fD-qvR-9" value="onDestory()" style="rounded=0;whiteSpace=wrap;html=1;fontSize=19;fillColor=#e51400;fontColor=#ffffff;strokeColor=#B20000;" vertex="1" parent="1">
          <mxGeometry x="330" y="810" width="120" height="40" as="geometry" />
        </mxCell>
        <mxCell id="f_M7K9jcNURET8fD-qvR-20" style="edgeStyle=orthogonalEdgeStyle;rounded=0;orthogonalLoop=1;jettySize=auto;html=1;entryX=1;entryY=0.5;entryDx=0;entryDy=0;exitX=0.5;exitY=0;exitDx=0;exitDy=0;" edge="1" parent="1" source="f_M7K9jcNURET8fD-qvR-10" target="f_M7K9jcNURET8fD-qvR-5">
          <mxGeometry relative="1" as="geometry" />
        </mxCell>
        <mxCell id="f_M7K9jcNURET8fD-qvR-10" value="onRestart()" style="rounded=0;whiteSpace=wrap;html=1;fontSize=19;fillColor=#008a00;strokeColor=#005700;fontColor=#ffffff;" vertex="1" parent="1">
          <mxGeometry x="540" y="525" width="120" height="40" as="geometry" />
        </mxCell>
        <mxCell id="f_M7K9jcNURET8fD-qvR-35" style="rounded=0;orthogonalLoop=1;jettySize=auto;html=1;exitX=1;exitY=0;exitDx=0;exitDy=0;entryX=0;entryY=1;entryDx=0;entryDy=0;dashed=1;endArrow=none;endFill=0;" edge="1" parent="1" source="f_M7K9jcNURET8fD-qvR-22" target="f_M7K9jcNURET8fD-qvR-4">
          <mxGeometry relative="1" as="geometry" />
        </mxCell>
        <mxCell id="f_M7K9jcNURET8fD-qvR-36" style="rounded=0;orthogonalLoop=1;jettySize=auto;html=1;exitX=1;exitY=1;exitDx=0;exitDy=0;entryX=0;entryY=0;entryDx=0;entryDy=0;endArrow=none;endFill=0;dashed=1;" edge="1" parent="1" source="f_M7K9jcNURET8fD-qvR-22" target="f_M7K9jcNURET8fD-qvR-5">
          <mxGeometry relative="1" as="geometry" />
        </mxCell>
        <mxCell id="f_M7K9jcNURET8fD-qvR-22" value="活动&lt;b style=&quot;font-size: 14px;&quot;&gt;可见&lt;/b&gt;，但&lt;b style=&quot;font-size: 14px;&quot;&gt;没有焦点&lt;/b&gt;" style="text;html=1;align=center;verticalAlign=middle;whiteSpace=wrap;rounded=0;fontSize=14;fillColor=#ffe6cc;strokeColor=#d79b00;" vertex="1" parent="1">
          <mxGeometry x="140" y="320" width="150" height="30" as="geometry" />
        </mxCell>
        <mxCell id="f_M7K9jcNURET8fD-qvR-34" style="rounded=0;orthogonalLoop=1;jettySize=auto;html=1;entryX=0;entryY=0.5;entryDx=0;entryDy=0;dashed=1;endArrow=none;endFill=0;" edge="1" parent="1" source="f_M7K9jcNURET8fD-qvR-23" target="f_M7K9jcNURET8fD-qvR-6">
          <mxGeometry relative="1" as="geometry" />
        </mxCell>
        <mxCell id="f_M7K9jcNURET8fD-qvR-23" value="活动&lt;b&gt;可见，得到焦点&lt;/b&gt;&lt;div&gt;用户可以与活动交互&lt;/div&gt;" style="text;html=1;align=left;verticalAlign=middle;whiteSpace=wrap;rounded=0;fontSize=14;fillColor=#ffe6cc;strokeColor=#d79b00;" vertex="1" parent="1">
          <mxGeometry x="150" y="450" width="130" height="40" as="geometry" />
        </mxCell>
        <mxCell id="f_M7K9jcNURET8fD-qvR-31" style="rounded=0;orthogonalLoop=1;jettySize=auto;html=1;entryX=0;entryY=0.5;entryDx=0;entryDy=0;dashed=1;endArrow=none;endFill=0;" edge="1" parent="1" source="f_M7K9jcNURET8fD-qvR-24" target="f_M7K9jcNURET8fD-qvR-7">
          <mxGeometry relative="1" as="geometry" />
        </mxCell>
        <mxCell id="f_M7K9jcNURET8fD-qvR-24" value="当前活动&lt;b style=&quot;font-size: 14px;&quot;&gt;可见&lt;/b&gt;&lt;div&gt;另一个活动得到焦点&lt;/div&gt;&lt;div&gt;当前活动&lt;b&gt;没有焦点&lt;/b&gt;&lt;/div&gt;" style="text;html=1;align=left;verticalAlign=middle;whiteSpace=wrap;rounded=0;fontSize=14;fillColor=#ffe6cc;strokeColor=#d79b00;" vertex="1" parent="1">
          <mxGeometry x="150" y="640" width="130" height="60" as="geometry" />
        </mxCell>
        <mxCell id="f_M7K9jcNURET8fD-qvR-33" style="rounded=0;orthogonalLoop=1;jettySize=auto;html=1;entryX=0;entryY=0.5;entryDx=0;entryDy=0;dashed=1;endArrow=none;endFill=0;" edge="1" parent="1" source="f_M7K9jcNURET8fD-qvR-27" target="f_M7K9jcNURET8fD-qvR-8">
          <mxGeometry relative="1" as="geometry" />
        </mxCell>
        <mxCell id="f_M7K9jcNURET8fD-qvR-27" value="活动&lt;b&gt;不可见&lt;/b&gt;" style="text;html=1;align=center;verticalAlign=middle;whiteSpace=wrap;rounded=0;fontSize=14;fillColor=#ffe6cc;strokeColor=#d79b00;" vertex="1" parent="1">
          <mxGeometry x="200" y="745" width="80" height="30" as="geometry" />
        </mxCell>
      </root>
    </mxGraphModel>
  </diagram>
</mxfile>
